<?xml version="1.0" standalone="no"?>
<!DOCTYPE svg PUBLIC "-//W3C//DTD SVG 20010904//EN"
 "http://www.w3.org/TR/2001/REC-SVG-20010904/DTD/svg10.dtd">
<svg version="1.0" xmlns="http://www.w3.org/2000/svg"
 width="500.000000pt" height="500.000000pt" viewBox="0 0 500.000000 500.000000"
 preserveAspectRatio="xMidYMid meet">

<g transform="translate(0.000000,500.000000) scale(0.100000,-0.100000)"
fill="#000000" stroke="none">
<path d="M1155 2941 c-16 -10 -152 -142 -302 -292 -284 -287 -298 -306 -285
-375 7 -39 38 -81 72 -99 38 -20 99 -19 130 1 41 27 560 547 576 576 20 39 18
105 -6 143 -38 61 -126 83 -185 46z"/>
<path d="M1671 2929 c-27 -11 -509 -485 -552 -543 -23 -30 -29 -50 -29 -88 0
-43 5 -54 38 -89 40 -42 86 -57 139 -45 40 10 579 549 594 594 37 111 -79 216
-190 171z"/>
<path d="M2911 2866 c-80 -27 -131 -93 -131 -171 0 -98 44 -143 185 -190 116
-39 154 -85 107 -128 -40 -36 -132 -9 -132 38 0 12 -16 15 -80 15 -79 0 -80 0
-80 -25 0 -55 55 -122 125 -151 53 -22 168 -22 220 0 104 44 151 145 111 240
-19 45 -65 77 -166 115 -113 43 -130 55 -130 91 0 65 95 79 129 19 16 -28 18
-29 95 -29 l79 0 -6 36 c-8 48 -49 99 -99 125 -53 27 -167 34 -227 15z"/>
<path d="M2140 2555 l0 -315 75 0 75 0 0 130 0 130 120 0 120 0 0 -130 0 -130
75 0 75 0 0 315 0 315 -75 0 -75 0 0 -125 0 -125 -120 0 -120 0 0 125 0 125
-75 0 -75 0 0 -315z"/>
<path d="M3350 2555 l0 -315 190 0 190 0 0 60 0 60 -115 0 -115 0 0 70 0 70
100 0 100 0 0 60 0 60 -100 0 -100 0 0 65 0 65 115 0 115 0 0 60 0 60 -190 0
-190 0 0 -315z"/>
<path d="M1680 2432 c-59 -26 -90 -73 -90 -135 0 -42 5 -53 38 -89 33 -35 45
-41 88 -45 146 -13 208 172 85 254 -33 23 -89 29 -121 15z"/>
<path d="M2928 1859 c-24 -14 -24 -71 0 -92 25 -22 75 -21 95 1 21 23 22 66 1
86 -17 18 -70 21 -96 5z"/>
<path d="M2080 1575 l0 -255 60 0 60 0 0 255 0 255 -60 0 -60 0 0 -255z"/>
<path d="M764 1796 c-3 -8 -4 -29 -2 -48 l3 -33 63 -3 62 -3 0 -194 0 -195 60
0 60 0 0 195 0 195 65 0 65 0 0 50 0 50 -185 0 c-150 0 -187 -3 -191 -14z"/>
<path d="M2437 1803 c-4 -3 -7 -114 -7 -245 l0 -238 60 0 59 0 3 106 3 106 80
-106 80 -106 73 0 72 0 -96 121 c-52 66 -93 126 -91 133 3 7 41 57 84 112 43
54 82 105 87 112 5 9 -9 12 -61 12 l-68 -1 -80 -106 -80 -106 -3 107 -3 106
-53 0 c-29 0 -56 -3 -59 -7z"/>
<path d="M3140 1756 c0 -39 -3 -45 -22 -48 -20 -3 -23 -10 -26 -50 -3 -46 -2
-48 22 -48 l26 0 0 -95 c0 -59 5 -108 14 -129 17 -41 67 -66 135 -66 l51 0 0
49 0 50 -37 3 -38 3 -3 93 -3 92 36 0 35 0 0 50 0 50 -35 0 c-35 0 -35 0 -35
45 l0 45 -60 0 -60 0 0 -44z"/>
<path d="M1284 1691 c-81 -37 -120 -128 -100 -236 8 -43 59 -103 103 -121 39
-17 131 -18 170 -3 31 12 79 54 96 84 34 63 25 165 -20 223 -51 68 -164 91
-249 53z m142 -104 c37 -32 39 -105 4 -142 -46 -49 -129 -22 -131 43 -2 58 3
78 27 100 32 28 66 28 100 -1z"/>
<path d="M1741 1699 c-77 -31 -120 -97 -121 -187 0 -82 46 -156 113 -181 50
-19 139 -13 188 12 135 72 126 284 -16 348 -43 20 -125 24 -164 8z m133 -120
c29 -35 33 -76 11 -118 -16 -32 -33 -41 -75 -41 -66 0 -97 114 -45 165 35 35
76 33 109 -6z"/>
<path d="M2920 1515 l0 -195 55 0 55 0 0 195 0 195 -55 0 -55 0 0 -195z"/>
</g>
</svg>
